<svg width="214.5" height="43.907" viewBox="0 0 410.3636363636364 84" class="looka-1j8o68f">
    <defs id="SvgjsDefs2475"></defs>
    <g id="SvgjsG2476" featurekey="symbolContainer" transform="matrix(1,0,0,1,0,0)" fill="rgb(247 235 56)">
        <rect xmlns="http://www.w3.org/2000/svg" width="104" height="84" rx="10" ry="10"></rect>
    </g>
    <g id="SvgjsG2477" featurekey="uHI19F-0"
        transform="matrix(1.3361966117871629,0,0,1.3361966117871629,18.647769076020356,9.027153566725014)"
        fill="#2583e7">
        <g xmlns="http://www.w3.org/2000/svg">
            <polygon fill="#817b22"
                points="19.937,10.508 17.653,8.212 1.012,24.792 17.647,41.428 19.94,39.135 5.603,24.794  "></polygon>
            <polygon fill="#817b22"
                points="29.714,10.508 44.046,24.794 29.711,39.135 32.004,41.428 48.637,24.792 32.001,8.212  "></polygon>
        </g>
    </g>
    <g id="SvgjsG2478" featurekey="8FbbNb-0"
        transform="matrix(3.1579580436689905,0,0,3.1579580436689905,122.67366039238942,2.52600377902386)"
        fill="#f7eb38">
        <path
            d="M8.86 16.7 l0 3 c-1.02 0.34 -2.08 0.44 -3.14 0.44 c-3.1 0 -5.3 -2.06 -5.3 -5.12 c0 -3.18 2.28 -5.12 5.3 -5.12 c1.06 0 2.12 0.1 3.14 0.44 l0 3 c-0.88 -0.46 -1.98 -0.58 -2.96 -0.58 c-0.66 0 -1.46 0.14 -1.92 0.66 c-0.42 0.42 -0.56 1.02 -0.56 1.58 c0 0.32 0.04 0.62 0.14 0.88 c0.08 0.28 0.22 0.52 0.42 0.72 c0.44 0.54 1.26 0.68 1.92 0.68 c0.88 0 2.18 -0.16 2.96 -0.58 z M10.58 6 l3 0 l0 14 l-3 0 l0 -14 z M20.4 17.32 c1.46 0 2.3 -0.86 2.3 -2.32 s-0.84 -2.32 -2.3 -2.32 s-2.3 0.86 -2.3 2.32 s0.84 2.32 2.3 2.32 z M20.4 20.1 c-3.08 0 -5.3 -2.04 -5.3 -5.1 c0 -3.16 2.3 -5.1 5.3 -5.1 c3.1 0 5.3 2.04 5.3 5.1 c0 3.14 -2.32 5.1 -5.3 5.1 z M34.16 10 l3 0 l0 5 c0 3.06 -2.12 5.1 -5.1 5.1 c-3.06 0 -5.1 -2.14 -5.1 -5.1 l0 -5 l3 0 l0 5 c0 1.34 0.68 2.32 2.1 2.32 c1.46 0 2.1 -0.96 2.1 -2.32 l0 -5 z M46.17999999999999 15 c0 -1.5 -0.74 -2.32 -2.26 -2.32 c-0.42 0 -0.78 0.06 -1.08 0.18 c-0.56 0.26 -0.94 0.64 -1.12 1.24 c-0.1 0.28 -0.14 0.58 -0.14 0.9 s0.04 0.62 0.14 0.9 c0.16 0.58 0.58 1 1.12 1.22 c0.3 0.14 0.66 0.2 1.08 0.2 c1.52 0 2.26 -0.82 2.26 -2.32 z M46.17999999999999 11 l0 -5 l3 0 l0 9 c0 3.18 -2.26 5.1 -5.28 5.1 c-3.08 0 -5.32 -2 -5.32 -5.06 c0 -2.82 2.08 -5.14 4.92 -5.14 c1.06 0 1.98 0.3 2.68 1.1 z M56.63999999999999 10.34 l0 2.78 l-2.46 0 l0 6.88 l-3 0 l0 -9.98 c0 -3.32 2.44 -5.12 5.52 -5.12 c0.1 0 0.24 0 0.38 0.02 s0.3 0.06 0.44 0.08 l0 2.9 c-0.1 -0.02 -0.22 -0.04 -0.36 -0.06 s-0.26 -0.04 -0.36 -0.04 c-0.5 0 -0.9 0.06 -1.24 0.16 c-0.56 0.2 -1.06 0.58 -1.24 1.18 c-0.1 0.26 -0.14 0.56 -0.14 0.86 l0 0.34 l2.46 0 z M58.71999999999999 6 l3 0 l0 14 l-3 0 l0 -14 z M68.53999999999999 17.32 c1.46 0 2.3 -0.86 2.3 -2.32 s-0.84 -2.32 -2.3 -2.32 s-2.3 0.86 -2.3 2.32 s0.84 2.32 2.3 2.32 z M68.53999999999999 20.1 c-3.08 0 -5.3 -2.04 -5.3 -5.1 c0 -3.16 2.3 -5.1 5.3 -5.1 c3.1 0 5.3 2.04 5.3 5.1 c0 3.14 -2.32 5.1 -5.3 5.1 z M87.39999999999999 10 l3 0 c0.66 1.54 0.7 3.34 0.7 5 c0 2.88 -1.8 5.1 -4.72 5.1 c-1.42 0 -2.56 -0.68 -3.28 -1.9 c-0.7 1.2 -1.88 1.9 -3.28 1.9 c-2.84 0 -4.72 -1.94 -4.72 -4.7 l0 -5.4 l3 0 l0 5.4 c0 1.12 0.54 1.92 1.72 1.92 c1.2 0 1.78 -0.78 1.78 -1.92 l0 -5.4 l3 0 l0 5.4 c0 1.14 0.58 1.92 1.78 1.92 c1.32 0 1.72 -1.2 1.72 -2.32 c0 -1.56 -0.08 -3.54 -0.7 -5 z">
        </path>
    </g>
</svg>